<svg width="1114" height="165" viewBox="0 0 1114 165" fill="none" xmlns="http://www.w3.org/2000/svg">
<path d="M0.604309 163V3H113.104V38H44.0418V65.5H106.229V100.5H44.0418V163H0.604309ZM168.443 163H121.568L174.381 3H233.756L286.568 163H239.693L204.693 47.0625H203.443L168.443 163ZM159.693 99.875H247.818V132.375H159.693V99.875ZM451.416 3V163H415.166L357.354 78.9375H356.416V163H312.979V3H349.854L406.729 86.75H407.979V3H451.416ZM491.763 163V3H535.2V128H599.888V163H491.763ZM672.209 163H625.334L678.146 3H737.521L790.334 163H743.459L708.459 47.0625H707.209L672.209 163ZM663.459 99.875H751.584V132.375H663.459V99.875ZM818.944 163V3H888.319C900.507 3 910.741 4.64062 919.022 7.92188C927.356 11.2031 933.632 15.8385 937.85 21.8281C942.121 27.8177 944.257 34.875 944.257 43C944.257 48.8854 942.955 54.25 940.35 59.0937C937.798 63.9375 934.205 68 929.569 71.2812C924.934 74.5104 919.517 76.75 913.319 78V79.5625C920.194 79.8229 926.444 81.5677 932.069 84.7969C937.694 87.974 942.173 92.375 945.507 98C948.84 103.573 950.507 110.135 950.507 117.687C950.507 126.437 948.215 134.224 943.632 141.047C939.1 147.87 932.642 153.234 924.257 157.141C915.871 161.047 905.871 163 894.257 163H818.944ZM862.382 128.313H882.694C889.986 128.313 895.455 126.958 899.1 124.25C902.746 121.49 904.569 117.427 904.569 112.062C904.569 108.312 903.71 105.135 901.991 102.531C900.272 99.9271 897.824 97.9479 894.647 96.5937C891.522 95.2396 887.746 94.5625 883.319 94.5625H862.382V128.313ZM862.382 67.6875H880.194C883.996 67.6875 887.356 67.0885 890.272 65.8906C893.189 64.6927 895.455 62.974 897.069 60.7344C898.736 58.4427 899.569 55.6562 899.569 52.375C899.569 47.4271 897.798 43.651 894.257 41.0469C890.715 38.3906 886.236 37.0625 880.819 37.0625H862.382V67.6875ZM1069.75 53C1069.33 47.7917 1067.38 43.7292 1063.89 40.8125C1060.45 37.8958 1055.22 36.4375 1048.18 36.4375C1043.71 36.4375 1040.03 36.9844 1037.17 38.0781C1034.36 39.1198 1032.27 40.5521 1030.92 42.375C1029.56 44.1979 1028.86 46.2812 1028.81 48.625C1028.71 50.5521 1029.04 52.2969 1029.83 53.8594C1030.66 55.3698 1031.96 56.75 1033.73 58C1035.5 59.1979 1037.77 60.2917 1040.53 61.2812C1043.29 62.2708 1046.57 63.1562 1050.37 63.9375L1063.5 66.75C1072.35 68.625 1079.93 71.099 1086.23 74.1719C1092.53 77.2448 1097.69 80.8646 1101.7 85.0313C1105.71 89.1458 1108.65 93.7812 1110.53 98.9375C1112.46 104.094 1113.45 109.719 1113.5 115.812C1113.45 126.333 1110.81 135.24 1105.61 142.531C1100.4 149.823 1092.95 155.37 1083.26 159.172C1073.63 162.974 1062.04 164.875 1048.5 164.875C1034.59 164.875 1022.46 162.818 1012.09 158.703C1001.78 154.589 993.758 148.26 988.029 139.719C982.351 131.125 979.487 120.135 979.435 106.75H1020.68C1020.95 111.646 1022.17 115.76 1024.36 119.094C1026.54 122.427 1029.62 124.953 1033.58 126.672C1037.59 128.391 1042.35 129.25 1047.87 129.25C1052.51 129.25 1056.39 128.677 1059.51 127.531C1062.64 126.385 1065.01 124.797 1066.62 122.766C1068.24 120.734 1069.07 118.417 1069.12 115.812C1069.07 113.365 1068.26 111.229 1066.7 109.406C1065.19 107.531 1062.69 105.865 1059.2 104.406C1055.71 102.896 1051 101.49 1045.06 100.187L1029.12 96.75C1014.96 93.6771 1003.78 88.5469 995.607 81.3594C987.482 74.1198 983.445 64.25 983.497 51.75C983.445 41.5937 986.154 32.7135 991.622 25.1094C997.143 17.4531 1004.77 11.4896 1014.51 7.21874C1024.3 2.94791 1035.53 0.812494 1048.18 0.812494C1061.1 0.812494 1072.27 2.97395 1081.7 7.29687C1091.13 11.6198 1098.39 17.7135 1103.5 25.5781C1108.65 33.3906 1111.26 42.5312 1111.31 53H1069.75Z" fill="white"/>
</svg>
